<mxfile host="app.diagrams.net" modified="2021-02-24T11:34:11.721Z" agent="5.0 (Windows NT 10.0; Win64; x64) AppleWebKit/537.36 (KHTML, like Gecko) Chrome/88.0.4324.182 Safari/537.36" etag="80K3oD4O8HgUp1NMRPvL" version="14.4.2" type="github">
  <diagram name="Page-1" id="c4acf3e9-155e-7222-9cf6-157b1a14988f">
    <mxGraphModel dx="868" dy="482" grid="1" gridSize="10" guides="1" tooltips="1" connect="1" arrows="1" fold="1" page="1" pageScale="1" pageWidth="850" pageHeight="1100" background="#ffffff" math="0" shadow="0">
      <root>
        <mxCell id="0" />
        <mxCell id="1" parent="0" />
        <mxCell id="17acba5748e5396b-1" value="frame" style="shape=umlFrame;whiteSpace=wrap;html=1;rounded=0;shadow=0;comic=0;labelBackgroundColor=none;strokeWidth=1;fontFamily=Verdana;fontSize=10;align=center;" parent="1" vertex="1">
          <mxGeometry x="20" y="20" width="820" height="1060" as="geometry" />
        </mxCell>
        <mxCell id="FXziDwkmJhJcugYJuyIg-14" value="ProductÂ " style="swimlane;fontStyle=1;align=center;verticalAlign=top;childLayout=stackLayout;horizontal=1;startSize=26;horizontalStack=0;resizeParent=1;resizeParentMax=0;resizeLast=0;collapsible=1;marginBottom=0;fillColor=none;gradientColor=none;" vertex="1" parent="1">
          <mxGeometry x="70" y="390" width="200" height="268" as="geometry" />
        </mxCell>
        <mxCell id="FXziDwkmJhJcugYJuyIg-15" value="+Id: int&#xa;+name:String&#xa;+category:String&#xa;+cost:float&#xa;+quantity:int&#xa;+salesPrice:flaot&#xa;+ active:boolean" style="text;strokeColor=none;fillColor=none;align=left;verticalAlign=top;spacingLeft=4;spacingRight=4;overflow=hidden;rotatable=0;points=[[0,0.5],[1,0.5]];portConstraint=eastwest;" vertex="1" parent="FXziDwkmJhJcugYJuyIg-14">
          <mxGeometry y="26" width="200" height="114" as="geometry" />
        </mxCell>
        <mxCell id="FXziDwkmJhJcugYJuyIg-16" value="" style="line;strokeWidth=1;fillColor=none;align=left;verticalAlign=middle;spacingTop=-1;spacingLeft=3;spacingRight=3;rotatable=0;labelPosition=right;points=[];portConstraint=eastwest;" vertex="1" parent="FXziDwkmJhJcugYJuyIg-14">
          <mxGeometry y="140" width="200" height="8" as="geometry" />
        </mxCell>
        <mxCell id="FXziDwkmJhJcugYJuyIg-17" value="+activate:void&#xa;+deactivate:void&#xa;+Profit/Loss:float&#xa;+belowThreshold:boolean" style="text;strokeColor=none;fillColor=none;align=left;verticalAlign=top;spacingLeft=4;spacingRight=4;overflow=hidden;rotatable=0;points=[[0,0.5],[1,0.5]];portConstraint=eastwest;" vertex="1" parent="FXziDwkmJhJcugYJuyIg-14">
          <mxGeometry y="148" width="200" height="120" as="geometry" />
        </mxCell>
        <mxCell id="FXziDwkmJhJcugYJuyIg-20" value="Order" style="swimlane;fontStyle=1;align=center;verticalAlign=top;childLayout=stackLayout;horizontal=1;startSize=26;horizontalStack=0;resizeParent=1;resizeParentMax=0;resizeLast=0;collapsible=1;marginBottom=0;fillColor=none;gradientColor=none;" vertex="1" parent="1">
          <mxGeometry x="320" y="450" width="210" height="180" as="geometry" />
        </mxCell>
        <mxCell id="FXziDwkmJhJcugYJuyIg-21" value="+Id: int&#xa;+vendor:vendor&#xa;+orderProduct:Product&#xa;+oderQuant:int&#xa;+amout:float&#xa;date:String" style="text;strokeColor=none;fillColor=none;align=left;verticalAlign=top;spacingLeft=4;spacingRight=4;overflow=hidden;rotatable=0;points=[[0,0.5],[1,0.5]];portConstraint=eastwest;" vertex="1" parent="FXziDwkmJhJcugYJuyIg-20">
          <mxGeometry y="26" width="210" height="94" as="geometry" />
        </mxCell>
        <mxCell id="FXziDwkmJhJcugYJuyIg-22" value="" style="line;strokeWidth=1;fillColor=none;align=left;verticalAlign=middle;spacingTop=-1;spacingLeft=3;spacingRight=3;rotatable=0;labelPosition=right;points=[];portConstraint=eastwest;" vertex="1" parent="FXziDwkmJhJcugYJuyIg-20">
          <mxGeometry y="120" width="210" height="8" as="geometry" />
        </mxCell>
        <mxCell id="FXziDwkmJhJcugYJuyIg-23" value="+statuscreditscore:void" style="text;strokeColor=none;fillColor=none;align=left;verticalAlign=top;spacingLeft=4;spacingRight=4;overflow=hidden;rotatable=0;points=[[0,0.5],[1,0.5]];portConstraint=eastwest;" vertex="1" parent="FXziDwkmJhJcugYJuyIg-20">
          <mxGeometry y="128" width="210" height="52" as="geometry" />
        </mxCell>
        <mxCell id="FXziDwkmJhJcugYJuyIg-24" value="Vendor" style="swimlane;fontStyle=1;align=center;verticalAlign=top;childLayout=stackLayout;horizontal=1;startSize=26;horizontalStack=0;resizeParent=1;resizeParentMax=0;resizeLast=0;collapsible=1;marginBottom=0;fillColor=none;gradientColor=none;" vertex="1" parent="1">
          <mxGeometry x="590" y="280" width="210" height="170" as="geometry" />
        </mxCell>
        <mxCell id="FXziDwkmJhJcugYJuyIg-25" value="+venderName:String&#xa;+credit:float&#xa;+orders:arrayList&#xa;+product:arraylist" style="text;strokeColor=none;fillColor=none;align=left;verticalAlign=top;spacingLeft=4;spacingRight=4;overflow=hidden;rotatable=0;points=[[0,0.5],[1,0.5]];portConstraint=eastwest;" vertex="1" parent="FXziDwkmJhJcugYJuyIg-24">
          <mxGeometry y="26" width="210" height="74" as="geometry" />
        </mxCell>
        <mxCell id="FXziDwkmJhJcugYJuyIg-26" value="" style="line;strokeWidth=1;fillColor=none;align=left;verticalAlign=middle;spacingTop=-1;spacingLeft=3;spacingRight=3;rotatable=0;labelPosition=right;points=[];portConstraint=eastwest;" vertex="1" parent="FXziDwkmJhJcugYJuyIg-24">
          <mxGeometry y="100" width="210" height="8" as="geometry" />
        </mxCell>
        <mxCell id="FXziDwkmJhJcugYJuyIg-27" value="+checkcredit:float&#xa;+productname:Product&#xa;+productId:Product" style="text;strokeColor=none;fillColor=none;align=left;verticalAlign=top;spacingLeft=4;spacingRight=4;overflow=hidden;rotatable=0;points=[[0,0.5],[1,0.5]];portConstraint=eastwest;" vertex="1" parent="FXziDwkmJhJcugYJuyIg-24">
          <mxGeometry y="108" width="210" height="62" as="geometry" />
        </mxCell>
        <mxCell id="FXziDwkmJhJcugYJuyIg-28" value="Customer" style="swimlane;fontStyle=1;align=center;verticalAlign=top;childLayout=stackLayout;horizontal=1;startSize=26;horizontalStack=0;resizeParent=1;resizeParentMax=0;resizeLast=0;collapsible=1;marginBottom=0;fillColor=none;gradientColor=none;" vertex="1" parent="1">
          <mxGeometry x="590" y="480" width="210" height="120" as="geometry" />
        </mxCell>
        <mxCell id="FXziDwkmJhJcugYJuyIg-29" value="+transactioncount:int" style="text;strokeColor=none;fillColor=none;align=left;verticalAlign=top;spacingLeft=4;spacingRight=4;overflow=hidden;rotatable=0;points=[[0,0.5],[1,0.5]];portConstraint=eastwest;" vertex="1" parent="FXziDwkmJhJcugYJuyIg-28">
          <mxGeometry y="26" width="210" height="44" as="geometry" />
        </mxCell>
        <mxCell id="FXziDwkmJhJcugYJuyIg-30" value="" style="line;strokeWidth=1;fillColor=none;align=left;verticalAlign=middle;spacingTop=-1;spacingLeft=3;spacingRight=3;rotatable=0;labelPosition=right;points=[];portConstraint=eastwest;" vertex="1" parent="FXziDwkmJhJcugYJuyIg-28">
          <mxGeometry y="70" width="210" height="8" as="geometry" />
        </mxCell>
        <mxCell id="FXziDwkmJhJcugYJuyIg-31" value="+calDiscount:float&#xa;+transactioncount:int" style="text;strokeColor=none;fillColor=none;align=left;verticalAlign=top;spacingLeft=4;spacingRight=4;overflow=hidden;rotatable=0;points=[[0,0.5],[1,0.5]];portConstraint=eastwest;" vertex="1" parent="FXziDwkmJhJcugYJuyIg-28">
          <mxGeometry y="78" width="210" height="42" as="geometry" />
        </mxCell>
        <mxCell id="FXziDwkmJhJcugYJuyIg-33" value="Address_info" style="swimlane;fontStyle=1;align=center;verticalAlign=top;childLayout=stackLayout;horizontal=1;startSize=26;horizontalStack=0;resizeParent=1;resizeParentMax=0;resizeLast=0;collapsible=1;marginBottom=0;fillColor=none;gradientColor=none;" vertex="1" parent="1">
          <mxGeometry x="70" y="80" width="210" height="130" as="geometry" />
        </mxCell>
        <mxCell id="FXziDwkmJhJcugYJuyIg-34" value="+state:String&#xa;+city:String&#xa;+streetName:String&#xa;" style="text;strokeColor=none;fillColor=none;align=left;verticalAlign=top;spacingLeft=4;spacingRight=4;overflow=hidden;rotatable=0;points=[[0,0.5],[1,0.5]];portConstraint=eastwest;" vertex="1" parent="FXziDwkmJhJcugYJuyIg-33">
          <mxGeometry y="26" width="210" height="54" as="geometry" />
        </mxCell>
        <mxCell id="FXziDwkmJhJcugYJuyIg-35" value="" style="line;strokeWidth=1;fillColor=none;align=left;verticalAlign=middle;spacingTop=-1;spacingLeft=3;spacingRight=3;rotatable=0;labelPosition=right;points=[];portConstraint=eastwest;" vertex="1" parent="FXziDwkmJhJcugYJuyIg-33">
          <mxGeometry y="80" width="210" height="8" as="geometry" />
        </mxCell>
        <mxCell id="FXziDwkmJhJcugYJuyIg-36" value="+Address:String&#xa;+updateinfoofAdd:String" style="text;strokeColor=none;fillColor=none;align=left;verticalAlign=top;spacingLeft=4;spacingRight=4;overflow=hidden;rotatable=0;points=[[0,0.5],[1,0.5]];portConstraint=eastwest;" vertex="1" parent="FXziDwkmJhJcugYJuyIg-33">
          <mxGeometry y="88" width="210" height="42" as="geometry" />
        </mxCell>
        <mxCell id="FXziDwkmJhJcugYJuyIg-37" value="Contact_info" style="swimlane;fontStyle=1;align=center;verticalAlign=top;childLayout=stackLayout;horizontal=1;startSize=26;horizontalStack=0;resizeParent=1;resizeParentMax=0;resizeLast=0;collapsible=1;marginBottom=0;fillColor=none;gradientColor=none;" vertex="1" parent="1">
          <mxGeometry x="70" y="240" width="210" height="138" as="geometry" />
        </mxCell>
        <mxCell id="FXziDwkmJhJcugYJuyIg-38" value="+name:String&#xa;+email:String&#xa;+phone:String" style="text;strokeColor=none;fillColor=none;align=left;verticalAlign=top;spacingLeft=4;spacingRight=4;overflow=hidden;rotatable=0;points=[[0,0.5],[1,0.5]];portConstraint=eastwest;" vertex="1" parent="FXziDwkmJhJcugYJuyIg-37">
          <mxGeometry y="26" width="210" height="54" as="geometry" />
        </mxCell>
        <mxCell id="FXziDwkmJhJcugYJuyIg-39" value="" style="line;strokeWidth=1;fillColor=none;align=left;verticalAlign=middle;spacingTop=-1;spacingLeft=3;spacingRight=3;rotatable=0;labelPosition=right;points=[];portConstraint=eastwest;" vertex="1" parent="FXziDwkmJhJcugYJuyIg-37">
          <mxGeometry y="80" width="210" height="8" as="geometry" />
        </mxCell>
        <mxCell id="FXziDwkmJhJcugYJuyIg-40" value="+contactdetail:String&#xa;+updatecontactinfo:String" style="text;strokeColor=none;fillColor=none;align=left;verticalAlign=top;spacingLeft=4;spacingRight=4;overflow=hidden;rotatable=0;points=[[0,0.5],[1,0.5]];portConstraint=eastwest;" vertex="1" parent="FXziDwkmJhJcugYJuyIg-37">
          <mxGeometry y="88" width="210" height="50" as="geometry" />
        </mxCell>
        <mxCell id="FXziDwkmJhJcugYJuyIg-41" value="BussinessParter_info" style="swimlane;fontStyle=1;align=center;verticalAlign=top;childLayout=stackLayout;horizontal=1;startSize=26;horizontalStack=0;resizeParent=1;resizeParentMax=0;resizeLast=0;collapsible=1;marginBottom=0;fillColor=none;gradientColor=none;" vertex="1" parent="1">
          <mxGeometry x="420" y="60" width="300" height="140" as="geometry" />
        </mxCell>
        <mxCell id="FXziDwkmJhJcugYJuyIg-42" value="+Id :int&#xa;+address:String&#xa;+contact:String" style="text;strokeColor=none;fillColor=none;align=left;verticalAlign=top;spacingLeft=4;spacingRight=4;overflow=hidden;rotatable=0;points=[[0,0.5],[1,0.5]];portConstraint=eastwest;" vertex="1" parent="FXziDwkmJhJcugYJuyIg-41">
          <mxGeometry y="26" width="300" height="64" as="geometry" />
        </mxCell>
        <mxCell id="FXziDwkmJhJcugYJuyIg-43" value="" style="line;strokeWidth=1;fillColor=none;align=left;verticalAlign=middle;spacingTop=-1;spacingLeft=3;spacingRight=3;rotatable=0;labelPosition=right;points=[];portConstraint=eastwest;" vertex="1" parent="FXziDwkmJhJcugYJuyIg-41">
          <mxGeometry y="90" width="300" height="8" as="geometry" />
        </mxCell>
        <mxCell id="FXziDwkmJhJcugYJuyIg-44" value="+contactin:String&#xa;+updatecontact:String" style="text;strokeColor=none;fillColor=none;align=left;verticalAlign=top;spacingLeft=4;spacingRight=4;overflow=hidden;rotatable=0;points=[[0,0.5],[1,0.5]];portConstraint=eastwest;" vertex="1" parent="FXziDwkmJhJcugYJuyIg-41">
          <mxGeometry y="98" width="300" height="42" as="geometry" />
        </mxCell>
        <mxCell id="FXziDwkmJhJcugYJuyIg-45" value="Title" style="text;align=center;fontStyle=1;verticalAlign=middle;spacingLeft=3;spacingRight=3;strokeColor=none;rotatable=0;points=[[0,0.5],[1,0.5]];portConstraint=eastwest;fillColor=none;gradientColor=none;" vertex="1" parent="1">
          <mxGeometry x="390" y="20" width="80" height="26" as="geometry" />
        </mxCell>
        <mxCell id="FXziDwkmJhJcugYJuyIg-46" value="" style="endArrow=diamondThin;endFill=1;endSize=24;html=1;entryX=0;entryY=0.5;entryDx=0;entryDy=0;" edge="1" parent="1" target="FXziDwkmJhJcugYJuyIg-41">
          <mxGeometry width="160" relative="1" as="geometry">
            <mxPoint x="280" y="129.5" as="sourcePoint" />
            <mxPoint x="440" y="129.5" as="targetPoint" />
          </mxGeometry>
        </mxCell>
        <mxCell id="FXziDwkmJhJcugYJuyIg-47" value="" style="endArrow=diamondThin;endFill=1;endSize=24;html=1;entryX=0;entryY=1;entryDx=0;entryDy=0;" edge="1" parent="1" target="FXziDwkmJhJcugYJuyIg-41">
          <mxGeometry width="160" relative="1" as="geometry">
            <mxPoint x="280" y="308.5" as="sourcePoint" />
            <mxPoint x="440" y="308.5" as="targetPoint" />
          </mxGeometry>
        </mxCell>
        <mxCell id="FXziDwkmJhJcugYJuyIg-52" value="" style="endArrow=diamondThin;endFill=0;endSize=24;html=1;exitX=0;exitY=0;exitDx=0;exitDy=0;" edge="1" parent="1" source="FXziDwkmJhJcugYJuyIg-24">
          <mxGeometry width="160" relative="1" as="geometry">
            <mxPoint x="360" y="210" as="sourcePoint" />
            <mxPoint x="510" y="200" as="targetPoint" />
          </mxGeometry>
        </mxCell>
        <mxCell id="FXziDwkmJhJcugYJuyIg-53" value="" style="endArrow=diamondThin;endFill=0;endSize=24;html=1;exitX=1;exitY=0;exitDx=0;exitDy=0;" edge="1" parent="1" source="FXziDwkmJhJcugYJuyIg-28">
          <mxGeometry width="160" relative="1" as="geometry">
            <mxPoint x="360" y="390" as="sourcePoint" />
            <mxPoint x="720" y="200" as="targetPoint" />
            <Array as="points">
              <mxPoint x="820" y="440" />
              <mxPoint x="820" y="240" />
            </Array>
          </mxGeometry>
        </mxCell>
        <mxCell id="FXziDwkmJhJcugYJuyIg-58" value="" style="endArrow=diamondThin;endFill=0;endSize=24;html=1;exitX=1.005;exitY=0.667;exitDx=0;exitDy=0;exitPerimeter=0;" edge="1" parent="1" source="FXziDwkmJhJcugYJuyIg-15">
          <mxGeometry width="160" relative="1" as="geometry">
            <mxPoint x="460" y="390" as="sourcePoint" />
            <mxPoint x="320" y="507" as="targetPoint" />
            <Array as="points" />
          </mxGeometry>
        </mxCell>
        <mxCell id="FXziDwkmJhJcugYJuyIg-59" value="" style="endArrow=diamondThin;endFill=0;endSize=24;html=1;entryX=0;entryY=0.5;entryDx=0;entryDy=0;" edge="1" parent="1" target="FXziDwkmJhJcugYJuyIg-27">
          <mxGeometry width="160" relative="1" as="geometry">
            <mxPoint x="273" y="419" as="sourcePoint" />
            <mxPoint x="520" y="340" as="targetPoint" />
            <Array as="points">
              <mxPoint x="420" y="419" />
            </Array>
          </mxGeometry>
        </mxCell>
        <mxCell id="FXziDwkmJhJcugYJuyIg-61" value="" style="line;strokeWidth=1;fillColor=none;align=left;verticalAlign=middle;spacingTop=-1;spacingLeft=3;spacingRight=3;rotatable=0;labelPosition=right;points=[];portConstraint=eastwest;" vertex="1" parent="1">
          <mxGeometry x="520" y="430" width="70" height="38" as="geometry" />
        </mxCell>
      </root>
    </mxGraphModel>
  </diagram>
</mxfile>
